<?xml version="1.0" encoding="utf-8"?>
<!-- Generator: Adobe Illustrator 24.0.3, SVG Export Plug-In . SVG Version: 6.00 Build 0)  -->
<svg version="1.1" xmlns="http://www.w3.org/2000/svg" xmlns:xlink="http://www.w3.org/1999/xlink" x="0px" y="0px"
	 viewBox="0 0 126.37 100" style="enable-background:new 0 0 126.37 100;" xml:space="preserve">
<style type="text/css">
	.st0{fill:#2E3192;}
</style>
<g id="Ebene_1">
</g>
<g id="Ebene_2">
	<path class="st0" d="M38.95,33.09c-2.13-6.47-6.38-8.31-12.21-6.38c-5.83,1.92-8.15,5.92-6.02,12.4l5.23,15.86l-0.18,0.06
		c-4.18-3.47-9.42-4.98-15.62-2.93c-4.68,1.54-7.95,4.18-10.16,7.35v30.19c2.34,4.55,5.37,8.04,8.9,10.34h22.56
		c4.04-2.46,7.57-6.46,7.25-11.31l0.18-0.06c1.59,4.83,5.65,7.64,11.03,5.86c5.65-1.86,7.36-5.87,5.38-11.88L38.95,33.09z
		 M28.25,86.45c-6.38,2.11-10.01-3.07-11.69-8.17c-1.8-5.47-1.54-11.42,4.93-13.55c4.1-1.35,8.4,1.27,10.6,7.93
		C34.31,79.4,33.63,84.68,28.25,86.45z"/>
	<path class="st0" d="M75.98,35.94c0.83-4.82,2.81-6.49,5.91-7.51c4.92-1.62,10.17,1.09,11.4,4.83c0.75,2.28,0.41,4.31-0.39,7.1
		l-3.44,12.25l10.29,7.92c3.12,2.41,4.88,4.05,5.81,6.88c1.11,3.37,0.12,8.65-5.89,10.64c-3.55,1.17-6.29,0.86-10.13-2.83
		l-7.84-7.52l-1.82,10.71c-0.9,5.25-2.91,7.12-6.46,8.3c-6.02,1.98-9.95-1.67-11.06-5.04c-0.93-2.83-0.5-5.19,0.57-8.98l3.56-12.5
		l-10.05-7.8c-2.3-1.77-3.79-3.2-4.54-5.48c-1.23-3.74,1.36-9.04,6.29-10.67c3.19-1.05,5.68-0.86,9.37,2.67l6.84,6.64L75.98,35.94z"
		/>
	<g>
		<path class="st0" d="M106.83,16.36c4.92-1.62,7.55-6.84,5.93-11.76c-0.61-1.85-1.73-3.38-3.16-4.48H98.25
			c-3.08,2.33-4.47,6.41-3.18,10.31C96.69,15.36,101.9,17.99,106.83,16.36z"/>
		<path class="st0" d="M126.35,44l-5.93-17.97c-2.1-6.38-6.99-8-12.46-6.2c-5.47,1.8-8.43,6.01-6.32,12.4l10.37,31.45
			c2.11,6.38,6.99,8.01,12.46,6.2c0.66-0.22,1.29-0.48,1.88-0.77V44z"/>
	</g>
</g>
<g id="Ebene_3">
</g>
</svg>
