<?xml version="1.0" encoding="utf-8"?>
<!-- Generator: Adobe Illustrator 24.0.3, SVG Export Plug-In . SVG Version: 6.00 Build 0)  -->
<svg version="1.1" xmlns="http://www.w3.org/2000/svg" xmlns:xlink="http://www.w3.org/1999/xlink" x="0px" y="0px"
	 viewBox="0 0 126.37 100" style="enable-background:new 0 0 126.37 100;" xml:space="preserve">
<style type="text/css">
	.st0{fill:#FFFFFF;}
	.st1{fill:#2E3192;}
</style>
<g id="Ebene_1">
	<rect x="-0.02" y="0.12" class="st0" width="126.37" height="99.86"/>
</g>
<g id="Ebene_2">
	<rect x="-0.02" y="0.12" class="st0" width="126.37" height="99.86"/>
	<g>
		<path class="st1" d="M24.72,40.18c-1.94-5.87,0.17-9.5,5.46-11.24c5.29-1.74,9.14-0.08,11.08,5.79l14.81,44.89
			c1.8,5.46,0.25,9.09-4.88,10.78c-4.88,1.61-8.56-0.94-10-5.32l-0.17,0.05c0.39,5.92-5.54,10.44-10.42,12.05
			c-11.91,3.93-22.26-2.47-26.87-16.44c-2.75-8.35-2.81-24.1,11.41-28.79c5.62-1.85,10.38-0.49,14.17,2.66l0.16-0.05L24.72,40.18z
			 M25.42,63.42c-5.87,1.94-6.11,7.33-4.47,12.29c1.53,4.63,4.82,9.32,10.6,7.41c4.88-1.61,5.5-6.4,3.48-12.52
			C33.04,64.57,29.14,62.19,25.42,63.42z"/>
		<path class="st1" d="M74.84,37.31c0.76-4.37,2.55-5.88,5.36-6.81c4.46-1.47,9.22,0.99,10.34,4.38c0.68,2.07,0.37,3.91-0.35,6.44
			l-3.12,11.11l9.34,7.19c2.83,2.18,4.42,3.68,5.27,6.24c1.01,3.06,0.11,7.85-5.34,9.65c-3.22,1.06-5.7,0.78-9.19-2.56l-7.11-6.82
			l-1.65,9.71c-0.81,4.76-2.64,6.46-5.86,7.52c-5.46,1.8-9.03-1.52-10.03-4.57c-0.85-2.56-0.45-4.71,0.52-8.15l3.23-11.33
			l-9.12-7.08c-2.09-1.6-3.43-2.9-4.11-4.97c-1.12-3.39,1.24-8.2,5.7-9.67c2.89-0.95,5.15-0.78,8.5,2.42l6.2,6.02L74.84,37.31z"/>
		<path class="st1" d="M97.52,3.52c4.46-1.47,9.19,0.91,10.66,5.37c1.47,4.46-0.91,9.19-5.37,10.66c-4.46,1.47-9.19-0.91-10.66-5.37
			C90.68,9.72,93.06,4.99,97.52,3.52z M98.11,33.94c-1.91-5.79,0.77-9.61,5.73-11.24c4.96-1.64,9.39-0.16,11.3,5.62l9.41,28.52
			c1.91,5.79-0.77,9.61-5.73,11.24c-4.96,1.64-9.39,0.16-11.3-5.62L98.11,33.94z"/>
	</g>
</g>
<g id="Ebene_3">
</g>
</svg>
